999
"DXF R12 Output" (www.mydxf.blogspot.com)
 0 
SECTION
 2 
HEADER
 9 
$ACADVER
 1 
AC1009
 9 
$EXTMIN
 10 
 0 
 20 
 0 
 9 
$EXTMAX
 10 
 8.5 
 20 
 11 
 0 
ENDSEC
 0 
SECTION
 2 
ENTITIES
0
LINE
8
Layer 1
10
103.473000
20
70.551800
11
103.473000
21
73.870800
0
LINE
8
Layer 1
10
28431.000000
20
4219.780000
11
7561.010000
21
4219.780000
0
LINE
8
Layer 1
10
103.473000
20
70.551800
11
156.483000
21
70.551800
0
LINE
8
Layer 1
10
156.483000
20
73.870800
11
156.483000
21
70.551800
0
LINE
8
Layer 1
10
103.578000
20
65.669400
11
77.498500
21
65.669400
0
LINE
8
Layer 1
10
103.578000
20
68.988400
11
103.578000
21
65.669400
0
LINE
8
Layer 1
10
76.363700
20
85.907400
11
76.363700
21
66.804200
0
LINE
8
Layer 1
10
80.357300
20
68.988400
11
80.357300
21
85.907400
0
LINE
8
Layer 1
10
76.363300
20
66.804400
11
76.449676
21
66.370227
0
LINE
8
Layer 1
10
76.449676
20
66.370227
11
76.695631
21
66.002161
0
LINE
8
Layer 1
10
76.695631
20
66.002161
11
77.063720
21
65.756238
0
LINE
8
Layer 1
10
77.063720
20
65.756238
11
77.497900
21
65.669900
0
LINE
8
Layer 1
10
80.357300
20
85.907400
11
76.363700
21
85.907400
0
LINE
8
Layer 1
10
103.578000
20
68.988400
11
80.357300
21
68.988400
0
LINE
8
Layer 1
10
156.672000
20
65.669400
11
170.465000
21
65.669400
0
LINE
8
Layer 1
10
156.672000
20
65.669400
11
156.672000
21
68.988400
0
LINE
8
Layer 1
10
167.552000
20
68.988400
11
156.672000
21
68.988400
0
LINE
8
Layer 1
10
170.465000
20
65.669900
11
170.899239
21
65.756196
0
LINE
8
Layer 1
10
170.899239
20
65.756196
11
171.267386
21
66.002118
0
LINE
8
Layer 1
10
171.267386
20
66.002118
11
171.513380
21
66.370218
0
LINE
8
Layer 1
10
171.513380
20
66.370218
11
171.599760
21
66.804440
0
LINE
8
Layer 1
10
32788.800000
20
8960.830000
11
32788.800000
21
2297.570000
0
LINE
8
Layer 1
10
171.599000
20
66.804200
11
171.599000
21
85.913100
0
LINE
8
Layer 1
10
171.599000
20
85.913100
11
167.552000
21
85.913100
0
LINE
8
Layer 1
10
171.252000
20
88.391200
11
171.252000
21
95.511600
0
LINE
8
Layer 1
10
167.204000
20
93.315900
11
151.129000
21
93.315900
0
LINE
8
Layer 1
10
151.129000
20
96.646400
11
170.117000
21
96.646400
0
LINE
8
Layer 1
10
151.129000
20
93.315900
11
151.129000
21
96.646400
0
LINE
8
Layer 1
10
171.252000
20
95.512100
11
171.165623
21
95.946325
0
LINE
8
Layer 1
10
171.165623
20
95.946325
11
170.919630
21
96.314428
0
LINE
8
Layer 1
10
170.919630
20
96.314428
11
170.551481
21
96.560353
0
LINE
8
Layer 1
10
170.551481
20
96.560353
11
170.117240
21
96.646650
0
LINE
8
Layer 1
10
167.204000
20
88.391200
11
167.204000
21
93.315900
0
LINE
8
Layer 1
10
167.204000
20
88.391200
11
171.252000
21
88.391200
0
LINE
8
Layer 1
10
145.581000
20
94.210600
11
145.581000
21
90.880100
0
LINE
8
Layer 1
10
145.581000
20
94.210600
11
103.612000
21
94.210600
0
LINE
8
Layer 1
10
103.612000
20
90.880100
11
145.581000
21
90.880100
0
LINE
8
Layer 1
10
103.612000
20
90.880100
11
103.612000
21
94.210600
0
LINE
8
Layer 1
10
74.421800
20
87.880100
11
74.421800
21
95.006300
0
LINE
8
Layer 1
10
101.627000
20
92.810600
11
78.415400
21
92.810600
0
LINE
8
Layer 1
10
74.421800
20
87.880100
11
78.415400
21
87.880100
0
LINE
8
Layer 1
10
75.556200
20
96.141400
11
75.122023
21
96.055043
0
LINE
8
Layer 1
10
75.122023
20
96.055043
11
74.753946
21
95.809104
0
LINE
8
Layer 1
10
74.753946
20
95.809104
11
74.508007
21
95.441027
0
LINE
8
Layer 1
10
74.508007
20
95.441027
11
74.421650
21
95.006850
0
LINE
8
Layer 1
10
101.627000
20
96.141000
11
101.627000
21
92.810600
0
LINE
8
Layer 1
10
78.415400
20
87.880100
11
78.415400
21
92.810600
0
LINE
8
Layer 1
10
101.627000
20
96.141000
11
75.556600
21
96.141000
0
LINE
8
Layer 1
10
103.473000
20
70.551800
11
103.473000
21
73.870800
0
LINE
8
Layer 1
10
28431.000000
20
4219.780000
11
7561.010000
21
4219.780000
0
LINE
8
Layer 1
10
103.473000
20
70.551800
11
156.483000
21
70.551800
0
LINE
8
Layer 1
10
156.483000
20
73.870800
11
156.483000
21
70.551800
0
LINE
8
Layer 1
10
103.578000
20
65.669400
11
77.498500
21
65.669400
0
LINE
8
Layer 1
10
103.578000
20
68.988400
11
103.578000
21
65.669400
0
LINE
8
Layer 1
10
76.363700
20
85.907400
11
76.363700
21
66.804200
0
LINE
8
Layer 1
10
80.357300
20
68.988400
11
80.357300
21
85.907400
0
LINE
8
Layer 1
10
76.363300
20
66.804400
11
76.449676
21
66.370227
0
LINE
8
Layer 1
10
76.449676
20
66.370227
11
76.695631
21
66.002161
0
LINE
8
Layer 1
10
76.695631
20
66.002161
11
77.063720
21
65.756238
0
LINE
8
Layer 1
10
77.063720
20
65.756238
11
77.497900
21
65.669900
0
LINE
8
Layer 1
10
80.357300
20
85.907400
11
76.363700
21
85.907400
0
LINE
8
Layer 1
10
103.578000
20
68.988400
11
80.357300
21
68.988400
0
LINE
8
Layer 1
10
156.672000
20
65.669400
11
170.465000
21
65.669400
0
LINE
8
Layer 1
10
156.672000
20
65.669400
11
156.672000
21
68.988400
0
LINE
8
Layer 1
10
167.552000
20
68.988400
11
156.672000
21
68.988400
0
LINE
8
Layer 1
10
170.465000
20
65.669900
11
170.899239
21
65.756196
0
LINE
8
Layer 1
10
170.899239
20
65.756196
11
171.267386
21
66.002118
0
LINE
8
Layer 1
10
171.267386
20
66.002118
11
171.513380
21
66.370218
0
LINE
8
Layer 1
10
171.513380
20
66.370218
11
171.599760
21
66.804440
0
LINE
8
Layer 1
10
32788.800000
20
8960.830000
11
32788.800000
21
2297.570000
0
LINE
8
Layer 1
10
171.599000
20
66.804200
11
171.599000
21
85.913100
0
LINE
8
Layer 1
10
171.599000
20
85.913100
11
167.552000
21
85.913100
0
LINE
8
Layer 1
10
171.252000
20
88.391200
11
171.252000
21
95.511600
0
LINE
8
Layer 1
10
167.204000
20
93.315900
11
151.129000
21
93.315900
0
LINE
8
Layer 1
10
151.129000
20
96.646400
11
170.117000
21
96.646400
0
LINE
8
Layer 1
10
151.129000
20
93.315900
11
151.129000
21
96.646400
0
LINE
8
Layer 1
10
171.252000
20
95.512100
11
171.165623
21
95.946325
0
LINE
8
Layer 1
10
171.165623
20
95.946325
11
170.919630
21
96.314428
0
LINE
8
Layer 1
10
170.919630
20
96.314428
11
170.551481
21
96.560353
0
LINE
8
Layer 1
10
170.551481
20
96.560353
11
170.117240
21
96.646650
0
LINE
8
Layer 1
10
167.204000
20
88.391200
11
167.204000
21
93.315900
0
LINE
8
Layer 1
10
167.204000
20
88.391200
11
171.252000
21
88.391200
0
LINE
8
Layer 1
10
145.581000
20
94.210600
11
145.581000
21
90.880100
0
LINE
8
Layer 1
10
145.581000
20
94.210600
11
103.612000
21
94.210600
0
LINE
8
Layer 1
10
103.612000
20
90.880100
11
145.581000
21
90.880100
0
LINE
8
Layer 1
10
103.612000
20
90.880100
11
103.612000
21
94.210600
0
LINE
8
Layer 1
10
74.421800
20
87.880100
11
74.421800
21
95.006300
0
LINE
8
Layer 1
10
101.627000
20
92.810600
11
78.415400
21
92.810600
0
LINE
8
Layer 1
10
74.421800
20
87.880100
11
78.415400
21
87.880100
0
LINE
8
Layer 1
10
75.556200
20
96.141400
11
75.122023
21
96.055043
0
LINE
8
Layer 1
10
75.122023
20
96.055043
11
74.753946
21
95.809104
0
LINE
8
Layer 1
10
74.753946
20
95.809104
11
74.508007
21
95.441027
0
LINE
8
Layer 1
10
74.508007
20
95.441027
11
74.421650
21
95.006850
0
LINE
8
Layer 1
10
101.627000
20
96.141000
11
101.627000
21
92.810600
0
LINE
8
Layer 1
10
78.415400
20
87.880100
11
78.415400
21
92.810600
0
LINE
8
Layer 1
10
101.627000
20
96.141000
11
75.556600
21
96.141000
0
LINE
8
Layer 1
10
103.473000
20
70.551800
11
103.473000
21
73.870800
0
LINE
8
Layer 1
10
28431.000000
20
4219.780000
11
7561.010000
21
4219.780000
0
LINE
8
Layer 1
10
103.473000
20
70.551800
11
156.483000
21
70.551800
0
LINE
8
Layer 1
10
156.483000
20
73.870800
11
156.483000
21
70.551800
0
LINE
8
Layer 1
10
103.578000
20
65.669400
11
77.498500
21
65.669400
0
LINE
8
Layer 1
10
103.578000
20
68.988400
11
103.578000
21
65.669400
0
LINE
8
Layer 1
10
76.363700
20
85.907400
11
76.363700
21
66.804200
0
LINE
8
Layer 1
10
80.357300
20
68.988400
11
80.357300
21
85.907400
0
LINE
8
Layer 1
10
76.363300
20
66.804400
11
76.449676
21
66.370227
0
LINE
8
Layer 1
10
76.449676
20
66.370227
11
76.695631
21
66.002161
0
LINE
8
Layer 1
10
76.695631
20
66.002161
11
77.063720
21
65.756238
0
LINE
8
Layer 1
10
77.063720
20
65.756238
11
77.497900
21
65.669900
0
LINE
8
Layer 1
10
80.357300
20
85.907400
11
76.363700
21
85.907400
0
LINE
8
Layer 1
10
103.578000
20
68.988400
11
80.357300
21
68.988400
0
LINE
8
Layer 1
10
156.672000
20
65.669400
11
170.465000
21
65.669400
0
LINE
8
Layer 1
10
156.672000
20
65.669400
11
156.672000
21
68.988400
0
LINE
8
Layer 1
10
167.552000
20
68.988400
11
156.672000
21
68.988400
0
LINE
8
Layer 1
10
170.465000
20
65.669900
11
170.899239
21
65.756196
0
LINE
8
Layer 1
10
170.899239
20
65.756196
11
171.267386
21
66.002118
0
LINE
8
Layer 1
10
171.267386
20
66.002118
11
171.513380
21
66.370218
0
LINE
8
Layer 1
10
171.513380
20
66.370218
11
171.599760
21
66.804440
0
LINE
8
Layer 1
10
32788.800000
20
8960.830000
11
32788.800000
21
2297.570000
0
LINE
8
Layer 1
10
171.599000
20
66.804200
11
171.599000
21
85.913100
0
LINE
8
Layer 1
10
171.599000
20
85.913100
11
167.552000
21
85.913100
0
LINE
8
Layer 1
10
171.252000
20
88.391200
11
171.252000
21
95.511600
0
LINE
8
Layer 1
10
167.204000
20
93.315900
11
151.129000
21
93.315900
0
LINE
8
Layer 1
10
151.129000
20
96.646400
11
170.117000
21
96.646400
0
LINE
8
Layer 1
10
151.129000
20
93.315900
11
151.129000
21
96.646400
0
LINE
8
Layer 1
10
171.252000
20
95.512100
11
171.165623
21
95.946325
0
LINE
8
Layer 1
10
171.165623
20
95.946325
11
170.919630
21
96.314428
0
LINE
8
Layer 1
10
170.919630
20
96.314428
11
170.551481
21
96.560353
0
LINE
8
Layer 1
10
170.551481
20
96.560353
11
170.117240
21
96.646650
0
LINE
8
Layer 1
10
167.204000
20
88.391200
11
167.204000
21
93.315900
0
LINE
8
Layer 1
10
167.204000
20
88.391200
11
171.252000
21
88.391200
0
LINE
8
Layer 1
10
145.581000
20
94.210600
11
145.581000
21
90.880100
0
LINE
8
Layer 1
10
145.581000
20
94.210600
11
103.612000
21
94.210600
0
LINE
8
Layer 1
10
103.612000
20
90.880100
11
145.581000
21
90.880100
0
LINE
8
Layer 1
10
103.612000
20
90.880100
11
103.612000
21
94.210600
0
LINE
8
Layer 1
10
74.421800
20
87.880100
11
74.421800
21
95.006300
0
LINE
8
Layer 1
10
101.627000
20
92.810600
11
78.415400
21
92.810600
0
LINE
8
Layer 1
10
74.421800
20
87.880100
11
78.415400
21
87.880100
0
LINE
8
Layer 1
10
75.556200
20
96.141400
11
75.122023
21
96.055043
0
LINE
8
Layer 1
10
75.122023
20
96.055043
11
74.753946
21
95.809104
0
LINE
8
Layer 1
10
74.753946
20
95.809104
11
74.508007
21
95.441027
0
LINE
8
Layer 1
10
74.508007
20
95.441027
11
74.421650
21
95.006850
0
LINE
8
Layer 1
10
101.627000
20
96.141000
11
101.627000
21
92.810600
0
LINE
8
Layer 1
10
78.415400
20
87.880100
11
78.415400
21
92.810600
0
LINE
8
Layer 1
10
101.627000
20
96.141000
11
75.556600
21
96.141000
 0 
ENDSEC
 0 
EOF